<svg width="617" height="37" viewBox="0 0 617 37" fill="none" xmlns="http://www.w3.org/2000/svg" style="">
<mask id="path-1-outside-1_1_5" maskUnits="userSpaceOnUse" x="0" y="0" width="617" height="37" fill="black">
<path fill="white" width="617" height="37" d="M0 0 L617 0 L617 37 L0 37 Z" class="FhGcoscw_0"></path>
<path d="M19.912 1.432V4.984H5.368V16.264H17.176V19.816H5.368V34.888H1V1.432H19.912Z" class="FhGcoscw_1"></path>
<path d="M29.4595 1.432V22.6C29.4595 25.576 30.1795 27.784 31.6195 29.224C33.0915 30.664 35.1235 31.384 37.7155 31.384C40.2755 31.384 42.2755 30.664 43.7155 29.224C45.1875 27.784 45.9235 25.576 45.9235 22.6V1.432H50.2915V22.552C50.2915 25.336 49.7315 27.688 48.6115 29.608C47.4915 31.496 45.9715 32.904 44.0515 33.832C42.1635 34.76 40.0355 35.224 37.6675 35.224C35.2995 35.224 33.1555 34.76 31.2355 33.832C29.3475 32.904 27.8435 31.496 26.7235 29.608C25.6355 27.688 25.0915 25.336 25.0915 22.552V1.432H29.4595Z" class="FhGcoscw_2"></path>
<path d="M61.9461 31.336H73.6581V34.888H57.5781V1.432H61.9461V31.336Z" class="FhGcoscw_3"></path>
<path d="M82.6649 31.336H94.3769V34.888H78.2969V1.432H82.6649V31.336Z" class="FhGcoscw_4"></path>
<path d="M109.624 35.224C107.416 35.224 105.432 34.84 103.672 34.072C101.944 33.272 100.584 32.184 99.5916 30.808C98.5996 29.4 98.0876 27.784 98.0556 25.96H102.712C102.872 27.528 103.512 28.856 104.632 29.944C105.784 31 107.448 31.528 109.624 31.528C111.704 31.528 113.336 31.016 114.52 29.992C115.736 28.936 116.344 27.592 116.344 25.96C116.344 24.68 115.992 23.64 115.288 22.84C114.584 22.04 113.704 21.432 112.648 21.016C111.592 20.6 110.168 20.152 108.376 19.672C106.168 19.096 104.392 18.52 103.048 17.944C101.736 17.368 100.6 16.472 99.6396 15.256C98.7116 14.008 98.2476 12.344 98.2476 10.264C98.2476 8.44 98.7116 6.824 99.6396 5.416C100.568 4.008 101.864 2.92 103.528 2.152C105.224 1.384 107.16 1 109.336 1C112.472 1 115.032 1.784 117.016 3.352C119.032 4.92 120.168 7 120.424 9.592H115.624C115.464 8.312 114.792 7.192 113.608 6.232C112.424 5.24 110.856 4.744 108.904 4.744C107.08 4.744 105.592 5.224 104.44 6.184C103.288 7.112 102.712 8.424 102.712 10.12C102.712 11.336 103.048 12.328 103.72 13.096C104.424 13.864 105.272 14.456 106.264 14.872C107.288 15.256 108.712 15.704 110.536 16.216C112.744 16.824 114.52 17.432 115.864 18.04C117.208 18.616 118.36 19.528 119.32 20.776C120.28 21.992 120.76 23.656 120.76 25.768C120.76 27.4 120.328 28.936 119.464 30.376C118.6 31.816 117.32 32.984 115.624 33.88C113.928 34.776 111.928 35.224 109.624 35.224Z" class="FhGcoscw_5"></path>
<path d="M147.779 1.432V4.984H138.66V34.888H134.292V4.984H125.124V1.432H147.779Z" class="FhGcoscw_6"></path>
<path d="M172.932 27.448H158.34L155.652 34.888H151.044L163.14 1.624H168.18L180.228 34.888H175.62L172.932 27.448ZM171.684 23.896L165.636 7L159.588 23.896H171.684Z" class="FhGcoscw_7"></path>
<path d="M183.868 18.136C183.868 14.872 184.604 11.944 186.076 9.352C187.548 6.728 189.548 4.68 192.076 3.208C194.636 1.736 197.468 1 200.572 1C204.22 1 207.404 1.88 210.124 3.64C212.844 5.4 214.828 7.896 216.076 11.128H210.844C209.916 9.112 208.572 7.56 206.812 6.472C205.084 5.384 203.004 4.84 200.572 4.84C198.236 4.84 196.14 5.384 194.284 6.472C192.428 7.56 190.972 9.112 189.916 11.128C188.86 13.112 188.332 15.448 188.332 18.136C188.332 20.792 188.86 23.128 189.916 25.144C190.972 27.128 192.428 28.664 194.284 29.752C196.14 30.84 198.236 31.384 200.572 31.384C203.004 31.384 205.084 30.856 206.812 29.8C208.572 28.712 209.916 27.16 210.844 25.144H216.076C214.828 28.344 212.844 30.824 210.124 32.584C207.404 34.312 204.22 35.176 200.572 35.176C197.468 35.176 194.636 34.456 192.076 33.016C189.548 31.544 187.548 29.512 186.076 26.92C184.604 24.328 183.868 21.4 183.868 18.136Z" class="FhGcoscw_8"></path>
<path d="M240.722 34.888L226.946 19.624V34.888H222.578V1.432H226.946V16.936L240.77 1.432H246.29L231.122 18.184L246.434 34.888H240.722Z" class="FhGcoscw_9"></path>
<path d="M306.157 1.432L296.461 34.888H291.565L283.789 7.96L275.725 34.888L270.877 34.936L261.517 1.432H266.173L273.469 29.8L281.533 1.432H286.429L294.109 29.704L301.453 1.432H306.157Z" class="FhGcoscw_10"></path>
<path d="M315.305 4.984V16.168H327.497V19.768H315.305V31.288H328.938V34.888H310.938V1.384H328.938V4.984H315.305Z" class="FhGcoscw_11"></path>
<path d="M352.299 17.656C353.515 17.848 354.619 18.344 355.611 19.144C356.635 19.944 357.435 20.936 358.011 22.12C358.619 23.304 358.923 24.568 358.923 25.912C358.923 27.608 358.491 29.144 357.627 30.52C356.763 31.864 355.499 32.936 353.835 33.736C352.203 34.504 350.267 34.888 348.027 34.888H335.547V1.432H347.547C349.819 1.432 351.755 1.816 353.355 2.584C354.955 3.32 356.155 4.328 356.955 5.608C357.755 6.888 358.155 8.328 358.155 9.928C358.155 11.912 357.611 13.56 356.523 14.872C355.467 16.152 354.059 17.08 352.299 17.656ZM339.915 15.88H347.259C349.307 15.88 350.891 15.4 352.011 14.44C353.131 13.48 353.691 12.152 353.691 10.456C353.691 8.76 353.131 7.432 352.011 6.472C350.891 5.512 349.275 5.032 347.163 5.032H339.915V15.88ZM347.643 31.288C349.819 31.288 351.515 30.776 352.731 29.752C353.947 28.728 354.555 27.304 354.555 25.48C354.555 23.624 353.915 22.168 352.635 21.112C351.355 20.024 349.643 19.48 347.499 19.48H339.915V31.288H347.643Z" class="FhGcoscw_12"></path>
<path d="M375.4 1.432C379.048 1.432 382.2 2.12 384.856 3.496C387.544 4.84 389.592 6.776 391 9.304C392.44 11.832 393.16 14.808 393.16 18.232C393.16 21.656 392.44 24.632 391 27.16C389.592 29.656 387.544 31.576 384.856 32.92C382.2 34.232 379.048 34.888 375.4 34.888H364.984V1.432H375.4ZM375.4 31.288C379.72 31.288 383.016 30.152 385.288 27.88C387.56 25.576 388.696 22.36 388.696 18.232C388.696 14.072 387.544 10.824 385.24 8.488C382.968 6.152 379.688 4.984 375.4 4.984H369.352V31.288H375.4Z" class="FhGcoscw_13"></path>
<path d="M403.29 4.984V16.168H415.482V19.768H403.29V31.288H416.922V34.888H398.922V1.384H416.922V4.984H403.29Z" class="FhGcoscw_14"></path>
<path d="M451.179 1.432L438.555 34.888H433.515L420.891 1.432H425.547L436.059 30.28L446.571 1.432H451.179Z" class="FhGcoscw_15"></path>
<path d="M460.337 4.984V16.168H472.529V19.768H460.337V31.288H473.969V34.888H455.969V1.384H473.969V4.984H460.337Z" class="FhGcoscw_16"></path>
<path d="M484.946 31.336H496.658V34.888H480.578V1.432H484.946V31.336Z" class="FhGcoscw_17"></path>
<path d="M516.465 35.224C513.361 35.224 510.529 34.504 507.969 33.064C505.409 31.592 503.377 29.56 501.873 26.968C500.401 24.344 499.665 21.4 499.665 18.136C499.665 14.872 500.401 11.944 501.873 9.352C503.377 6.728 505.409 4.696 507.969 3.256C510.529 1.784 513.361 1.048 516.465 1.048C519.601 1.048 522.449 1.784 525.009 3.256C527.569 4.696 529.585 6.712 531.057 9.304C532.529 11.896 533.265 14.84 533.265 18.136C533.265 21.432 532.529 24.376 531.057 26.968C529.585 29.56 527.569 31.592 525.009 33.064C522.449 34.504 519.601 35.224 516.465 35.224ZM516.465 31.432C518.801 31.432 520.897 30.888 522.753 29.8C524.641 28.712 526.113 27.16 527.169 25.144C528.257 23.128 528.801 20.792 528.801 18.136C528.801 15.448 528.257 13.112 527.169 11.128C526.113 9.112 524.657 7.56 522.801 6.472C520.945 5.384 518.833 4.84 516.465 4.84C514.097 4.84 511.985 5.384 510.129 6.472C508.273 7.56 506.801 9.112 505.713 11.128C504.657 13.112 504.129 15.448 504.129 18.136C504.129 20.792 504.657 23.128 505.713 25.144C506.801 27.16 508.273 28.712 510.129 29.8C512.017 30.888 514.129 31.432 516.465 31.432Z" class="FhGcoscw_18"></path>
<path d="M561.399 11.224C561.399 14.008 560.439 16.328 558.519 18.184C556.631 20.008 553.735 20.92 549.831 20.92H543.399V34.888H539.031V1.432H549.831C553.607 1.432 556.471 2.344 558.423 4.168C560.407 5.992 561.399 8.344 561.399 11.224ZM549.831 17.32C552.263 17.32 554.055 16.792 555.207 15.736C556.359 14.68 556.935 13.176 556.935 11.224C556.935 7.096 554.567 5.032 549.831 5.032H543.399V17.32H549.831Z" class="FhGcoscw_19"></path>
<path d="M571.196 4.984V16.168H583.388V19.768H571.196V31.288H584.828V34.888H566.828V1.384H584.828V4.984H571.196Z" class="FhGcoscw_20"></path>
<path d="M609.054 34.888L601.086 21.208H595.806V34.888H591.438V1.432H602.237C604.766 1.432 606.893 1.864 608.622 2.728C610.382 3.592 611.693 4.76 612.557 6.232C613.422 7.704 613.854 9.384 613.854 11.272C613.854 13.576 613.182 15.608 611.838 17.368C610.526 19.128 608.542 20.296 605.885 20.872L614.286 34.888H609.054ZM595.806 17.704H602.237C604.605 17.704 606.381 17.128 607.565 15.976C608.75 14.792 609.341 13.224 609.341 11.272C609.341 9.288 608.75 7.752 607.565 6.664C606.414 5.576 604.638 5.032 602.237 5.032H595.806V17.704Z" class="FhGcoscw_21"></path>
</mask>
<path d="M19.912 1.432V4.984H5.368V16.264H17.176V19.816H5.368V34.888H1V1.432H19.912Z" stroke="white" stroke-width="2" mask="url(#path-1-outside-1_1_5)" class="FhGcoscw_22"></path>
<path d="M29.4595 1.432V22.6C29.4595 25.576 30.1795 27.784 31.6195 29.224C33.0915 30.664 35.1235 31.384 37.7155 31.384C40.2755 31.384 42.2755 30.664 43.7155 29.224C45.1875 27.784 45.9235 25.576 45.9235 22.6V1.432H50.2915V22.552C50.2915 25.336 49.7315 27.688 48.6115 29.608C47.4915 31.496 45.9715 32.904 44.0515 33.832C42.1635 34.76 40.0355 35.224 37.6675 35.224C35.2995 35.224 33.1555 34.76 31.2355 33.832C29.3475 32.904 27.8435 31.496 26.7235 29.608C25.6355 27.688 25.0915 25.336 25.0915 22.552V1.432H29.4595Z" stroke="white" stroke-width="2" mask="url(#path-1-outside-1_1_5)" class="FhGcoscw_23"></path>
<path d="M61.9461 31.336H73.6581V34.888H57.5781V1.432H61.9461V31.336Z" stroke="white" stroke-width="2" mask="url(#path-1-outside-1_1_5)" class="FhGcoscw_24"></path>
<path d="M82.6649 31.336H94.3769V34.888H78.2969V1.432H82.6649V31.336Z" stroke="white" stroke-width="2" mask="url(#path-1-outside-1_1_5)" class="FhGcoscw_25"></path>
<path d="M109.624 35.224C107.416 35.224 105.432 34.84 103.672 34.072C101.944 33.272 100.584 32.184 99.5916 30.808C98.5996 29.4 98.0876 27.784 98.0556 25.96H102.712C102.872 27.528 103.512 28.856 104.632 29.944C105.784 31 107.448 31.528 109.624 31.528C111.704 31.528 113.336 31.016 114.52 29.992C115.736 28.936 116.344 27.592 116.344 25.96C116.344 24.68 115.992 23.64 115.288 22.84C114.584 22.04 113.704 21.432 112.648 21.016C111.592 20.6 110.168 20.152 108.376 19.672C106.168 19.096 104.392 18.52 103.048 17.944C101.736 17.368 100.6 16.472 99.6396 15.256C98.7116 14.008 98.2476 12.344 98.2476 10.264C98.2476 8.44 98.7116 6.824 99.6396 5.416C100.568 4.008 101.864 2.92 103.528 2.152C105.224 1.384 107.16 1 109.336 1C112.472 1 115.032 1.784 117.016 3.352C119.032 4.92 120.168 7 120.424 9.592H115.624C115.464 8.312 114.792 7.192 113.608 6.232C112.424 5.24 110.856 4.744 108.904 4.744C107.08 4.744 105.592 5.224 104.44 6.184C103.288 7.112 102.712 8.424 102.712 10.12C102.712 11.336 103.048 12.328 103.72 13.096C104.424 13.864 105.272 14.456 106.264 14.872C107.288 15.256 108.712 15.704 110.536 16.216C112.744 16.824 114.52 17.432 115.864 18.04C117.208 18.616 118.36 19.528 119.32 20.776C120.28 21.992 120.76 23.656 120.76 25.768C120.76 27.4 120.328 28.936 119.464 30.376C118.6 31.816 117.32 32.984 115.624 33.88C113.928 34.776 111.928 35.224 109.624 35.224Z" stroke="white" stroke-width="2" mask="url(#path-1-outside-1_1_5)" class="FhGcoscw_26"></path>
<path d="M147.779 1.432V4.984H138.66V34.888H134.292V4.984H125.124V1.432H147.779Z" stroke="white" stroke-width="2" mask="url(#path-1-outside-1_1_5)" class="FhGcoscw_27"></path>
<path d="M172.932 27.448H158.34L155.652 34.888H151.044L163.14 1.624H168.18L180.228 34.888H175.62L172.932 27.448ZM171.684 23.896L165.636 7L159.588 23.896H171.684Z" stroke="white" stroke-width="2" mask="url(#path-1-outside-1_1_5)" class="FhGcoscw_28"></path>
<path d="M183.868 18.136C183.868 14.872 184.604 11.944 186.076 9.352C187.548 6.728 189.548 4.68 192.076 3.208C194.636 1.736 197.468 1 200.572 1C204.22 1 207.404 1.88 210.124 3.64C212.844 5.4 214.828 7.896 216.076 11.128H210.844C209.916 9.112 208.572 7.56 206.812 6.472C205.084 5.384 203.004 4.84 200.572 4.84C198.236 4.84 196.14 5.384 194.284 6.472C192.428 7.56 190.972 9.112 189.916 11.128C188.86 13.112 188.332 15.448 188.332 18.136C188.332 20.792 188.86 23.128 189.916 25.144C190.972 27.128 192.428 28.664 194.284 29.752C196.14 30.84 198.236 31.384 200.572 31.384C203.004 31.384 205.084 30.856 206.812 29.8C208.572 28.712 209.916 27.16 210.844 25.144H216.076C214.828 28.344 212.844 30.824 210.124 32.584C207.404 34.312 204.22 35.176 200.572 35.176C197.468 35.176 194.636 34.456 192.076 33.016C189.548 31.544 187.548 29.512 186.076 26.92C184.604 24.328 183.868 21.4 183.868 18.136Z" stroke="white" stroke-width="2" mask="url(#path-1-outside-1_1_5)" class="FhGcoscw_29"></path>
<path d="M240.722 34.888L226.946 19.624V34.888H222.578V1.432H226.946V16.936L240.77 1.432H246.29L231.122 18.184L246.434 34.888H240.722Z" stroke="white" stroke-width="2" mask="url(#path-1-outside-1_1_5)" class="FhGcoscw_30"></path>
<path d="M306.157 1.432L296.461 34.888H291.565L283.789 7.96L275.725 34.888L270.877 34.936L261.517 1.432H266.173L273.469 29.8L281.533 1.432H286.429L294.109 29.704L301.453 1.432H306.157Z" stroke="white" stroke-width="2" mask="url(#path-1-outside-1_1_5)" class="FhGcoscw_31"></path>
<path d="M315.305 4.984V16.168H327.497V19.768H315.305V31.288H328.938V34.888H310.938V1.384H328.938V4.984H315.305Z" stroke="white" stroke-width="2" mask="url(#path-1-outside-1_1_5)" class="FhGcoscw_32"></path>
<path d="M352.299 17.656C353.515 17.848 354.619 18.344 355.611 19.144C356.635 19.944 357.435 20.936 358.011 22.12C358.619 23.304 358.923 24.568 358.923 25.912C358.923 27.608 358.491 29.144 357.627 30.52C356.763 31.864 355.499 32.936 353.835 33.736C352.203 34.504 350.267 34.888 348.027 34.888H335.547V1.432H347.547C349.819 1.432 351.755 1.816 353.355 2.584C354.955 3.32 356.155 4.328 356.955 5.608C357.755 6.888 358.155 8.328 358.155 9.928C358.155 11.912 357.611 13.56 356.523 14.872C355.467 16.152 354.059 17.08 352.299 17.656ZM339.915 15.88H347.259C349.307 15.88 350.891 15.4 352.011 14.44C353.131 13.48 353.691 12.152 353.691 10.456C353.691 8.76 353.131 7.432 352.011 6.472C350.891 5.512 349.275 5.032 347.163 5.032H339.915V15.88ZM347.643 31.288C349.819 31.288 351.515 30.776 352.731 29.752C353.947 28.728 354.555 27.304 354.555 25.48C354.555 23.624 353.915 22.168 352.635 21.112C351.355 20.024 349.643 19.48 347.499 19.48H339.915V31.288H347.643Z" stroke="white" stroke-width="2" mask="url(#path-1-outside-1_1_5)" class="FhGcoscw_33"></path>
<path d="M375.4 1.432C379.048 1.432 382.2 2.12 384.856 3.496C387.544 4.84 389.592 6.776 391 9.304C392.44 11.832 393.16 14.808 393.16 18.232C393.16 21.656 392.44 24.632 391 27.16C389.592 29.656 387.544 31.576 384.856 32.92C382.2 34.232 379.048 34.888 375.4 34.888H364.984V1.432H375.4ZM375.4 31.288C379.72 31.288 383.016 30.152 385.288 27.88C387.56 25.576 388.696 22.36 388.696 18.232C388.696 14.072 387.544 10.824 385.24 8.488C382.968 6.152 379.688 4.984 375.4 4.984H369.352V31.288H375.4Z" stroke="white" stroke-width="2" mask="url(#path-1-outside-1_1_5)" class="FhGcoscw_34"></path>
<path d="M403.29 4.984V16.168H415.482V19.768H403.29V31.288H416.922V34.888H398.922V1.384H416.922V4.984H403.29Z" stroke="white" stroke-width="2" mask="url(#path-1-outside-1_1_5)" class="FhGcoscw_35"></path>
<path d="M451.179 1.432L438.555 34.888H433.515L420.891 1.432H425.547L436.059 30.28L446.571 1.432H451.179Z" stroke="white" stroke-width="2" mask="url(#path-1-outside-1_1_5)" class="FhGcoscw_36"></path>
<path d="M460.337 4.984V16.168H472.529V19.768H460.337V31.288H473.969V34.888H455.969V1.384H473.969V4.984H460.337Z" stroke="white" stroke-width="2" mask="url(#path-1-outside-1_1_5)" class="FhGcoscw_37"></path>
<path d="M484.946 31.336H496.658V34.888H480.578V1.432H484.946V31.336Z" stroke="white" stroke-width="2" mask="url(#path-1-outside-1_1_5)" class="FhGcoscw_38"></path>
<path d="M516.465 35.224C513.361 35.224 510.529 34.504 507.969 33.064C505.409 31.592 503.377 29.56 501.873 26.968C500.401 24.344 499.665 21.4 499.665 18.136C499.665 14.872 500.401 11.944 501.873 9.352C503.377 6.728 505.409 4.696 507.969 3.256C510.529 1.784 513.361 1.048 516.465 1.048C519.601 1.048 522.449 1.784 525.009 3.256C527.569 4.696 529.585 6.712 531.057 9.304C532.529 11.896 533.265 14.84 533.265 18.136C533.265 21.432 532.529 24.376 531.057 26.968C529.585 29.56 527.569 31.592 525.009 33.064C522.449 34.504 519.601 35.224 516.465 35.224ZM516.465 31.432C518.801 31.432 520.897 30.888 522.753 29.8C524.641 28.712 526.113 27.16 527.169 25.144C528.257 23.128 528.801 20.792 528.801 18.136C528.801 15.448 528.257 13.112 527.169 11.128C526.113 9.112 524.657 7.56 522.801 6.472C520.945 5.384 518.833 4.84 516.465 4.84C514.097 4.84 511.985 5.384 510.129 6.472C508.273 7.56 506.801 9.112 505.713 11.128C504.657 13.112 504.129 15.448 504.129 18.136C504.129 20.792 504.657 23.128 505.713 25.144C506.801 27.16 508.273 28.712 510.129 29.8C512.017 30.888 514.129 31.432 516.465 31.432Z" stroke="white" stroke-width="2" mask="url(#path-1-outside-1_1_5)" class="FhGcoscw_39"></path>
<path d="M561.399 11.224C561.399 14.008 560.439 16.328 558.519 18.184C556.631 20.008 553.735 20.92 549.831 20.92H543.399V34.888H539.031V1.432H549.831C553.607 1.432 556.471 2.344 558.423 4.168C560.407 5.992 561.399 8.344 561.399 11.224ZM549.831 17.32C552.263 17.32 554.055 16.792 555.207 15.736C556.359 14.68 556.935 13.176 556.935 11.224C556.935 7.096 554.567 5.032 549.831 5.032H543.399V17.32H549.831Z" stroke="white" stroke-width="2" mask="url(#path-1-outside-1_1_5)" class="FhGcoscw_40"></path>
<path d="M571.196 4.984V16.168H583.388V19.768H571.196V31.288H584.828V34.888H566.828V1.384H584.828V4.984H571.196Z" stroke="white" stroke-width="2" mask="url(#path-1-outside-1_1_5)" class="FhGcoscw_41"></path>
<path d="M609.054 34.888L601.086 21.208H595.806V34.888H591.438V1.432H602.237C604.766 1.432 606.893 1.864 608.622 2.728C610.382 3.592 611.693 4.76 612.557 6.232C613.422 7.704 613.854 9.384 613.854 11.272C613.854 13.576 613.182 15.608 611.838 17.368C610.526 19.128 608.542 20.296 605.885 20.872L614.286 34.888H609.054ZM595.806 17.704H602.237C604.605 17.704 606.381 17.128 607.565 15.976C608.75 14.792 609.341 13.224 609.341 11.272C609.341 9.288 608.75 7.752 607.565 6.664C606.414 5.576 604.638 5.032 602.237 5.032H595.806V17.704Z" stroke="white" stroke-width="2" mask="url(#path-1-outside-1_1_5)" class="FhGcoscw_42"></path>
<style data-made-with="vivus-instant">.FhGcoscw_0{stroke-dasharray:1308 1310;stroke-dashoffset:1309;animation:FhGcoscw_draw 2000ms ease-in 0ms forwards;}.FhGcoscw_1{stroke-dasharray:129 131;stroke-dashoffset:130;animation:FhGcoscw_draw 2000ms ease-in 23ms forwards;}.FhGcoscw_2{stroke-dasharray:162 164;stroke-dashoffset:163;animation:FhGcoscw_draw 2000ms ease-in 47ms forwards;}.FhGcoscw_3{stroke-dasharray:100 102;stroke-dashoffset:101;animation:FhGcoscw_draw 2000ms ease-in 71ms forwards;}.FhGcoscw_4{stroke-dasharray:100 102;stroke-dashoffset:101;animation:FhGcoscw_draw 2000ms ease-in 95ms forwards;}.FhGcoscw_5{stroke-dasharray:165 167;stroke-dashoffset:166;animation:FhGcoscw_draw 2000ms ease-in 119ms forwards;}.FhGcoscw_6{stroke-dasharray:113 115;stroke-dashoffset:114;animation:FhGcoscw_draw 2000ms ease-in 142ms forwards;}.FhGcoscw_7{stroke-dasharray:164 166;stroke-dashoffset:165;animation:FhGcoscw_draw 2000ms ease-in 166ms forwards;}.FhGcoscw_8{stroke-dasharray:170 172;stroke-dashoffset:171;animation:FhGcoscw_draw 2000ms ease-in 190ms forwards;}.FhGcoscw_9{stroke-dasharray:171 173;stroke-dashoffset:172;animation:FhGcoscw_draw 2000ms ease-in 214ms forwards;}.FhGcoscw_10{stroke-dasharray:268 270;stroke-dashoffset:269;animation:FhGcoscw_draw 2000ms ease-in 238ms forwards;}.FhGcoscw_11{stroke-dasharray:155 157;stroke-dashoffset:156;animation:FhGcoscw_draw 2000ms ease-in 261ms forwards;}.FhGcoscw_12{stroke-dasharray:204 206;stroke-dashoffset:205;animation:FhGcoscw_draw 2000ms ease-in 285ms forwards;}.FhGcoscw_13{stroke-dasharray:191 193;stroke-dashoffset:192;animation:FhGcoscw_draw 2000ms ease-in 309ms forwards;}.FhGcoscw_14{stroke-dasharray:155 157;stroke-dashoffset:156;animation:FhGcoscw_draw 2000ms ease-in 333ms forwards;}.FhGcoscw_15{stroke-dasharray:148 150;stroke-dashoffset:149;animation:FhGcoscw_draw 2000ms ease-in 357ms forwards;}.FhGcoscw_16{stroke-dasharray:155 157;stroke-dashoffset:156;animation:FhGcoscw_draw 2000ms ease-in 380ms forwards;}.FhGcoscw_17{stroke-dasharray:100 102;stroke-dashoffset:101;animation:FhGcoscw_draw 2000ms ease-in 404ms forwards;}.FhGcoscw_18{stroke-dasharray:189 191;stroke-dashoffset:190;animation:FhGcoscw_draw 2000ms ease-in 428ms forwards;}.FhGcoscw_19{stroke-dasharray:150 152;stroke-dashoffset:151;animation:FhGcoscw_draw 2000ms ease-in 452ms forwards;}.FhGcoscw_20{stroke-dasharray:155 157;stroke-dashoffset:156;animation:FhGcoscw_draw 2000ms ease-in 476ms forwards;}.FhGcoscw_21{stroke-dasharray:184 186;stroke-dashoffset:185;animation:FhGcoscw_draw 2000ms ease-in 500ms forwards;}.FhGcoscw_22{stroke-dasharray:129 131;stroke-dashoffset:130;animation:FhGcoscw_draw 2000ms ease-in 523ms forwards;}.FhGcoscw_23{stroke-dasharray:162 164;stroke-dashoffset:163;animation:FhGcoscw_draw 2000ms ease-in 547ms forwards;}.FhGcoscw_24{stroke-dasharray:100 102;stroke-dashoffset:101;animation:FhGcoscw_draw 2000ms ease-in 571ms forwards;}.FhGcoscw_25{stroke-dasharray:100 102;stroke-dashoffset:101;animation:FhGcoscw_draw 2000ms ease-in 595ms forwards;}.FhGcoscw_26{stroke-dasharray:165 167;stroke-dashoffset:166;animation:FhGcoscw_draw 2000ms ease-in 619ms forwards;}.FhGcoscw_27{stroke-dasharray:113 115;stroke-dashoffset:114;animation:FhGcoscw_draw 2000ms ease-in 642ms forwards;}.FhGcoscw_28{stroke-dasharray:164 166;stroke-dashoffset:165;animation:FhGcoscw_draw 2000ms ease-in 666ms forwards;}.FhGcoscw_29{stroke-dasharray:170 172;stroke-dashoffset:171;animation:FhGcoscw_draw 2000ms ease-in 690ms forwards;}.FhGcoscw_30{stroke-dasharray:171 173;stroke-dashoffset:172;animation:FhGcoscw_draw 2000ms ease-in 714ms forwards;}.FhGcoscw_31{stroke-dasharray:268 270;stroke-dashoffset:269;animation:FhGcoscw_draw 2000ms ease-in 738ms forwards;}.FhGcoscw_32{stroke-dasharray:155 157;stroke-dashoffset:156;animation:FhGcoscw_draw 2000ms ease-in 761ms forwards;}.FhGcoscw_33{stroke-dasharray:204 206;stroke-dashoffset:205;animation:FhGcoscw_draw 2000ms ease-in 785ms forwards;}.FhGcoscw_34{stroke-dasharray:191 193;stroke-dashoffset:192;animation:FhGcoscw_draw 2000ms ease-in 809ms forwards;}.FhGcoscw_35{stroke-dasharray:155 157;stroke-dashoffset:156;animation:FhGcoscw_draw 2000ms ease-in 833ms forwards;}.FhGcoscw_36{stroke-dasharray:148 150;stroke-dashoffset:149;animation:FhGcoscw_draw 2000ms ease-in 857ms forwards;}.FhGcoscw_37{stroke-dasharray:155 157;stroke-dashoffset:156;animation:FhGcoscw_draw 2000ms ease-in 880ms forwards;}.FhGcoscw_38{stroke-dasharray:100 102;stroke-dashoffset:101;animation:FhGcoscw_draw 2000ms ease-in 904ms forwards;}.FhGcoscw_39{stroke-dasharray:189 191;stroke-dashoffset:190;animation:FhGcoscw_draw 2000ms ease-in 928ms forwards;}.FhGcoscw_40{stroke-dasharray:150 152;stroke-dashoffset:151;animation:FhGcoscw_draw 2000ms ease-in 952ms forwards;}.FhGcoscw_41{stroke-dasharray:155 157;stroke-dashoffset:156;animation:FhGcoscw_draw 2000ms ease-in 976ms forwards;}.FhGcoscw_42{stroke-dasharray:184 186;stroke-dashoffset:185;animation:FhGcoscw_draw 2000ms ease-in 1000ms forwards;}@keyframes FhGcoscw_draw{100%{stroke-dashoffset:0;}}@keyframes FhGcoscw_fade{0%{stroke-opacity:1;}94.44444444444444%{stroke-opacity:1;}100%{stroke-opacity:0;}}</style></svg>
